{
    "asset": {
        "version": "2.0",
        "generator": "Open Asset Import Library (assimp v5.4.0)"
    },
    "extensionsUsed": [
        "KHR_materials_clearcoat",
        "KHR_materials_volume",
        "FB_ngon_encoding"
    ],
    "accessors": [
        {
            "bufferView": 0,
            "byteOffset": 0,
            "componentType": 5126,
            "count": 38,
            "type": "VEC3",
            "max": [
                16.380199432373047,
                26.95067596435547,
                -16.615116119384766
            ],
            "min": [
                15.145639419555664,
                25.713895797729492,
                -17.267921447753906
            ]
        },
        {
            "bufferView": 1,
            "byteOffset": 0,
            "componentType": 5126,
            "count": 38,
            "type": "VEC3",
            "max": [
                0.7084892392158508,
                0.7084892392158508,
                0.7618030309677124
            ],
            "min": [
                -0.7084892392158508,
                -0.7084892392158508,
                -0.7437335848808289
            ]
        },
        {
            "bufferView": 2,
            "byteOffset": 0,
            "componentType": 5126,
            "count": 38,
            "type": "VEC2",
            "max": [
                5.2567853927612305,
                1.00020170211792
            ],
            "min": [
                -1.156947135925293,
                -4.222965240478516
            ]
        },
        {
            "bufferView": 3,
            "byteOffset": 0,
            "componentType": 5125,
            "count": 48,
            "type": "SCALAR",
            "max": [
                37
            ],
            "min": [
                0
            ]
        },
        {
            "bufferView": 4,
            "byteOffset": 0,
            "componentType": 5126,
            "count": 20998,
            "type": "VEC3",
            "max": [
                48.225616455078125,
                37.08250045776367,
                -0.4081916809082031
            ],
            "min": [
                11.848299980163574,
                0.7051849961280823,
                -17.569900512695313
            ]
        },
        {
            "bufferView": 5,
            "byteOffset": 0,
            "componentType": 5126,
            "count": 20998,
            "type": "VEC3",
            "max": [
                1.0,
                1.0,
                1.0
            ],
            "min": [
                -1.0,
                -1.0,
                -1.0
            ]
        },
        {
            "bufferView": 6,
            "byteOffset": 0,
            "componentType": 5126,
            "count": 20998,
            "type": "VEC2",
            "max": [
                5.337930679321289,
                1.2313041687011719
            ],
            "min": [
                -5.297309875488281,
                -4.328129768371582
            ]
        },
        {
            "bufferView": 7,
            "byteOffset": 0,
            "componentType": 5125,
            "count": 38850,
            "type": "SCALAR",
            "max": [
                20997
            ],
            "min": [
                0
            ]
        },
        {
            "bufferView": 8,
            "byteOffset": 0,
            "componentType": 5126,
            "count": 4612,
            "type": "VEC3",
            "max": [
                48.377532958984375,
                37.23440170288086,
                -2.473992347717285
            ],
            "min": [
                11.696399688720703,
                0.5532670021057129,
                -14.474900245666504
            ]
        },
        {
            "bufferView": 9,
            "byteOffset": 0,
            "componentType": 5126,
            "count": 4612,
            "type": "VEC3",
            "max": [
                1.0,
                1.0,
                1.0
            ],
            "min": [
                -1.0,
                -1.0,
                -1.0
            ]
        },
        {
            "bufferView": 10,
            "byteOffset": 0,
            "componentType": 5126,
            "count": 4612,
            "type": "VEC2",
            "max": [
                56.45100021362305,
                7.1374945640563965
            ],
            "min": [
                -56.45100021362305,
                -5.480679988861084
            ]
        },
        {
            "bufferView": 11,
            "byteOffset": 0,
            "componentType": 5125,
            "count": 7908,
            "type": "SCALAR",
            "max": [
                4611
            ],
            "min": [
                0
            ]
        },
        {
            "bufferView": 12,
            "byteOffset": 0,
            "componentType": 5126,
            "count": 1228,
            "type": "VEC3",
            "max": [
                48.377532958984375,
                37.23440170288086,
                -2.4746437072753906
            ],
            "min": [
                11.696399688720703,
                0.5532670021057129,
                -15.724900245666504
            ]
        },
        {
            "bufferView": 13,
            "byteOffset": 0,
            "componentType": 5126,
            "count": 1228,
            "type": "VEC3",
            "max": [
                1.0,
                1.0,
                1.0
            ],
            "min": [
                -1.0,
                -1.0,
                -1.0
            ]
        },
        {
            "bufferView": 14,
            "byteOffset": 0,
            "componentType": 5126,
            "count": 1228,
            "type": "VEC2",
            "max": [
                1.9862900972366333,
                0.9866080284118652
            ],
            "min": [
                1.0077199935913086,
                -1.2465600967407227
            ]
        },
        {
            "bufferView": 15,
            "byteOffset": 0,
            "componentType": 5125,
            "count": 3660,
            "type": "SCALAR",
            "max": [
                1227
            ],
            "min": [
                0
            ]
        },
        {
            "bufferView": 16,
            "byteOffset": 0,
            "componentType": 5126,
            "count": 2073,
            "type": "VEC3",
            "max": [
                47.670433044433594,
                36.52730178833008,
                -2.475022315979004
            ],
            "min": [
                12.403499603271484,
                1.2603700160980225,
                -15.474900245666504
            ]
        },
        {
            "bufferView": 17,
            "byteOffset": 0,
            "componentType": 5126,
            "count": 2073,
            "type": "VEC3",
            "max": [
                1.0,
                1.0,
                1.0
            ],
            "min": [
                -1.0,
                -1.0,
                -1.0
            ]
        },
        {
            "bufferView": 18,
            "byteOffset": 0,
            "componentType": 5126,
            "count": 2073,
            "type": "VEC2",
            "max": [
                0.23229199647903442,
                1.0259432792663574
            ],
            "min": [
                -0.6322919726371765,
                0.3999999761581421
            ]
        },
        {
            "bufferView": 19,
            "byteOffset": 0,
            "componentType": 5125,
            "count": 4302,
            "type": "SCALAR",
            "max": [
                2072
            ],
            "min": [
                0
            ]
        },
        {
            "bufferView": 20,
            "byteOffset": 0,
            "componentType": 5126,
            "count": 5826,
            "type": "VEC3",
            "max": [
                47.00750732421875,
                35.86439895629883,
                -0.7278885841369629
            ],
            "min": [
                13.066399574279785,
                1.9232900142669678,
                -6.474860191345215
            ]
        },
        {
            "bufferView": 21,
            "byteOffset": 0,
            "componentType": 5126,
            "count": 5826,
            "type": "VEC3",
            "max": [
                1.0,
                1.0,
                1.0
            ],
            "min": [
                -1.0,
                -1.0,
                -1.0
            ]
        },
        {
            "bufferView": 22,
            "byteOffset": 0,
            "componentType": 5126,
            "count": 5826,
            "type": "VEC2",
            "max": [
                36.0,
                2.2992124557495117
            ],
            "min": [
                -36.0,
                -7.839590072631836
            ]
        },
        {
            "bufferView": 23,
            "byteOffset": 0,
            "componentType": 5125,
            "count": 9852,
            "type": "SCALAR",
            "max": [
                5825
            ],
            "min": [
                0
            ]
        },
        {
            "bufferView": 24,
            "byteOffset": 0,
            "componentType": 5126,
            "count": 4232,
            "type": "VEC3",
            "max": [
                47.07420349121094,
                35.83075714111328,
                0.0069828033447265625
            ],
            "min": [
                13.460599899291992,
                2.319740056991577,
                -7.309510231018066
            ]
        },
        {
            "bufferView": 25,
            "byteOffset": 0,
            "componentType": 5126,
            "count": 4232,
            "type": "VEC3",
            "max": [
                1.0,
                1.0,
                1.0
            ],
            "min": [
                -1.0,
                -1.0,
                -1.0
            ]
        },
        {
            "bufferView": 26,
            "byteOffset": 0,
            "componentType": 5126,
            "count": 4232,
            "type": "VEC2",
            "max": [
                0.20000000298023224,
                1.048477053642273
            ],
            "min": [
                -0.20000000298023224,
                0.800000011920929
            ]
        },
        {
            "bufferView": 27,
            "byteOffset": 0,
            "componentType": 5125,
            "count": 8808,
            "type": "SCALAR",
            "max": [
                4231
            ],
            "min": [
                0
            ]
        },
        {
            "bufferView": 28,
            "byteOffset": 0,
            "componentType": 5126,
            "count": 1008,
            "type": "VEC3",
            "max": [
                48.42172622680664,
                37.27859878540039,
                -13.474101066589355
            ],
            "min": [
                11.652199745178223,
                0.50907301902771,
                -14.849900245666504
            ]
        },
        {
            "bufferView": 29,
            "byteOffset": 0,
            "componentType": 5126,
            "count": 1008,
            "type": "VEC3",
            "max": [
                1.0,
                1.0,
                1.0
            ],
            "min": [
                -1.0,
                -1.0,
                -1.0
            ]
        },
        {
            "bufferView": 30,
            "byteOffset": 0,
            "componentType": 5126,
            "count": 1008,
            "type": "VEC2",
            "max": [
                1.1652748584747314,
                12.653400421142578
            ],
            "min": [
                -1.7898399829864502,
                -2.7698700428009033
            ]
        },
        {
            "bufferView": 31,
            "byteOffset": 0,
            "componentType": 5125,
            "count": 1968,
            "type": "SCALAR",
            "max": [
                1007
            ],
            "min": [
                0
            ]
        },
        {
            "bufferView": 32,
            "byteOffset": 0,
            "componentType": 5126,
            "count": 29410,
            "type": "VEC3",
            "max": [
                27.522201538085938,
                35.328800201416016,
                -4.179475784301758
            ],
            "min": [
                23.53860092163086,
                31.345199584960938,
                -6.888460159301758
            ]
        },
        {
            "bufferView": 33,
            "byteOffset": 0,
            "componentType": 5126,
            "count": 29410,
            "type": "VEC3",
            "max": [
                0.7098715901374817,
                0.7095862627029419,
                1.0
            ],
            "min": [
                -0.7084892392158508,
                -0.7098603844642639,
                -1.0
            ]
        },
        {
            "bufferView": 34,
            "byteOffset": 0,
            "componentType": 5126,
            "count": 29410,
            "type": "VEC2",
            "max": [
                0.14160600304603577,
                1.0000053644180298
            ],
            "min": [
                -0.14131000638008118,
                0.9264400005340576
            ]
        },
        {
            "bufferView": 35,
            "byteOffset": 0,
            "componentType": 5125,
            "count": 58932,
            "type": "SCALAR",
            "max": [
                29409
            ],
            "min": [
                0
            ]
        }
    ],
    "buffers": [
        {
            "byteLength": 2758912,
            "uri": "low_rider_raw_1__0.bin"
        }
    ],
    "bufferViews": [
        {
            "buffer": 0,
            "byteOffset": 0,
            "byteLength": 456,
            "target": 34962
        },
        {
            "buffer": 0,
            "byteOffset": 456,
            "byteLength": 456,
            "target": 34962
        },
        {
            "buffer": 0,
            "byteOffset": 912,
            "byteLength": 304,
            "target": 34962
        },
        {
            "buffer": 0,
            "byteOffset": 1216,
            "byteLength": 192,
            "target": 34963
        },
        {
            "buffer": 0,
            "byteOffset": 1408,
            "byteLength": 251976,
            "target": 34962
        },
        {
            "buffer": 0,
            "byteOffset": 253384,
            "byteLength": 251976,
            "target": 34962
        },
        {
            "buffer": 0,
            "byteOffset": 505360,
            "byteLength": 167984,
            "target": 34962
        },
        {
            "buffer": 0,
            "byteOffset": 673344,
            "byteLength": 155400,
            "target": 34963
        },
        {
            "buffer": 0,
            "byteOffset": 828744,
            "byteLength": 55344,
            "target": 34962
        },
        {
            "buffer": 0,
            "byteOffset": 884088,
            "byteLength": 55344,
            "target": 34962
        },
        {
            "buffer": 0,
            "byteOffset": 939432,
            "byteLength": 36896,
            "target": 34962
        },
        {
            "buffer": 0,
            "byteOffset": 976328,
            "byteLength": 31632,
            "target": 34963
        },
        {
            "buffer": 0,
            "byteOffset": 1007960,
            "byteLength": 14736,
            "target": 34962
        },
        {
            "buffer": 0,
            "byteOffset": 1022696,
            "byteLength": 14736,
            "target": 34962
        },
        {
            "buffer": 0,
            "byteOffset": 1037432,
            "byteLength": 9824,
            "target": 34962
        },
        {
            "buffer": 0,
            "byteOffset": 1047256,
            "byteLength": 14640,
            "target": 34963
        },
        {
            "buffer": 0,
            "byteOffset": 1061896,
            "byteLength": 24876,
            "target": 34962
        },
        {
            "buffer": 0,
            "byteOffset": 1086772,
            "byteLength": 24876,
            "target": 34962
        },
        {
            "buffer": 0,
            "byteOffset": 1111648,
            "byteLength": 16584,
            "target": 34962
        },
        {
            "buffer": 0,
            "byteOffset": 1128232,
            "byteLength": 17208,
            "target": 34963
        },
        {
            "buffer": 0,
            "byteOffset": 1145440,
            "byteLength": 69912,
            "target": 34962
        },
        {
            "buffer": 0,
            "byteOffset": 1215352,
            "byteLength": 69912,
            "target": 34962
        },
        {
            "buffer": 0,
            "byteOffset": 1285264,
            "byteLength": 46608,
            "target": 34962
        },
        {
            "buffer": 0,
            "byteOffset": 1331872,
            "byteLength": 39408,
            "target": 34963
        },
        {
            "buffer": 0,
            "byteOffset": 1371280,
            "byteLength": 50784,
            "target": 34962
        },
        {
            "buffer": 0,
            "byteOffset": 1422064,
            "byteLength": 50784,
            "target": 34962
        },
        {
            "buffer": 0,
            "byteOffset": 1472848,
            "byteLength": 33856,
            "target": 34962
        },
        {
            "buffer": 0,
            "byteOffset": 1506704,
            "byteLength": 35232,
            "target": 34963
        },
        {
            "buffer": 0,
            "byteOffset": 1541936,
            "byteLength": 12096,
            "target": 34962
        },
        {
            "buffer": 0,
            "byteOffset": 1554032,
            "byteLength": 12096,
            "target": 34962
        },
        {
            "buffer": 0,
            "byteOffset": 1566128,
            "byteLength": 8064,
            "target": 34962
        },
        {
            "buffer": 0,
            "byteOffset": 1574192,
            "byteLength": 7872,
            "target": 34963
        },
        {
            "buffer": 0,
            "byteOffset": 1582064,
            "byteLength": 352920,
            "target": 34962
        },
        {
            "buffer": 0,
            "byteOffset": 1934984,
            "byteLength": 352920,
            "target": 34962
        },
        {
            "buffer": 0,
            "byteOffset": 2287904,
            "byteLength": 235280,
            "target": 34962
        },
        {
            "buffer": 0,
            "byteOffset": 2523184,
            "byteLength": 235728,
            "target": 34963
        }
    ],
    "images": [
        {
            "uri": "textures/image_0.png"
        },
        {
            "uri": "textures/image_1.png"
        },
        {
            "uri": "textures/image_2.png"
        },
        {
            "uri": "textures/image_3.png"
        },
        {
            "uri": "textures/image_4.png"
        },
        {
            "uri": "textures/image_5.png"
        },
        {
            "uri": "textures/image_6.png"
        }
    ],
    "materials": [
        {
            "name": "METAL.021",
            "pbrMetallicRoughness": {
                "baseColorTexture": {
                    "index": 0
                },
                "metallicFactor": 0.918181836605072,
                "roughnessFactor": 0.2863636612892151
            },
            "doubleSided": true
        },
        {
            "name": "RAW_CEDAR_GRAIN.003",
            "pbrMetallicRoughness": {
                "baseColorTexture": {
                    "index": 1
                },
                "metallicFactor": 0.0
            },
            "doubleSided": true
        },
        {
            "name": "Cedar_side.003",
            "pbrMetallicRoughness": {
                "baseColorTexture": {
                    "index": 2
                },
                "metallicFactor": 0.0
            },
            "doubleSided": true
        },
        {
            "name": "OFF_WHITE.021",
            "pbrMetallicRoughness": {
                "baseColorTexture": {
                    "index": 3
                },
                "metallicFactor": 0.0,
                "roughnessFactor": 0.1499999761581421
            },
            "doubleSided": true,
            "extensions": {
                "KHR_materials_clearcoat": {
                    "clearcoatFactor": 0.9545454382896423,
                    "clearcoatRoughnessFactor": 0.029999999329447746
                }
            }
        },
        {
            "name": "FrontColor.028",
            "pbrMetallicRoughness": {
                "metallicFactor": 0.0
            },
            "doubleSided": true
        },
        {
            "name": "SUB_SYSTEM.024",
            "pbrMetallicRoughness": {
                "baseColorTexture": {
                    "index": 4
                },
                "metallicFactor": 0.0,
                "roughnessFactor": 0.331818163394928
            },
            "doubleSided": true,
            "extensions": {
                "KHR_materials_clearcoat": {
                    "clearcoatFactor": 0.949999988079071,
                    "clearcoatRoughnessFactor": 0.029999999329447746
                }
            }
        },
        {
            "name": "RAW_CEDAR_LONG.003",
            "pbrMetallicRoughness": {
                "baseColorTexture": {
                    "index": 5
                },
                "metallicFactor": 0.0
            },
            "doubleSided": true
        },
        {
            "name": "BIRD_LOGO.021",
            "pbrMetallicRoughness": {
                "baseColorTexture": {
                    "index": 6
                },
                "metallicFactor": 0.0
            },
            "doubleSided": true
        }
    ],
    "meshes": [
        {
            "name": "meshes[0]",
            "primitives": [
                {
                    "mode": 1,
                    "material": 0,
                    "indices": 3,
                    "attributes": {
                        "POSITION": 0,
                        "NORMAL": 1,
                        "TEXCOORD_0": 2
                    }
                },
                {
                    "mode": 4,
                    "material": 0,
                    "indices": 7,
                    "attributes": {
                        "POSITION": 4,
                        "NORMAL": 5,
                        "TEXCOORD_0": 6
                    }
                }
            ]
        },
        {
            "name": "meshes[1]",
            "primitives": [
                {
                    "mode": 4,
                    "material": 1,
                    "indices": 11,
                    "attributes": {
                        "POSITION": 8,
                        "NORMAL": 9,
                        "TEXCOORD_0": 10
                    }
                }
            ]
        },
        {
            "name": "meshes[2]",
            "primitives": [
                {
                    "mode": 4,
                    "material": 2,
                    "indices": 15,
                    "attributes": {
                        "POSITION": 12,
                        "NORMAL": 13,
                        "TEXCOORD_0": 14
                    }
                }
            ]
        },
        {
            "name": "meshes[3]",
            "primitives": [
                {
                    "mode": 4,
                    "material": 3,
                    "indices": 19,
                    "attributes": {
                        "POSITION": 16,
                        "NORMAL": 17,
                        "TEXCOORD_0": 18
                    }
                }
            ]
        },
        {
            "name": "meshes[4]",
            "primitives": [
                {
                    "mode": 4,
                    "material": 4,
                    "indices": 23,
                    "attributes": {
                        "POSITION": 20,
                        "NORMAL": 21,
                        "TEXCOORD_0": 22
                    }
                }
            ]
        },
        {
            "name": "meshes[5]",
            "primitives": [
                {
                    "mode": 4,
                    "material": 5,
                    "indices": 27,
                    "attributes": {
                        "POSITION": 24,
                        "NORMAL": 25,
                        "TEXCOORD_0": 26
                    }
                }
            ]
        },
        {
            "name": "meshes[6]",
            "primitives": [
                {
                    "mode": 4,
                    "material": 6,
                    "indices": 31,
                    "attributes": {
                        "POSITION": 28,
                        "NORMAL": 29,
                        "TEXCOORD_0": 30
                    }
                }
            ]
        },
        {
            "name": "meshes[7]",
            "primitives": [
                {
                    "mode": 4,
                    "material": 7,
                    "indices": 35,
                    "attributes": {
                        "POSITION": 32,
                        "NORMAL": 33,
                        "TEXCOORD_0": 34
                    }
                }
            ]
        }
    ],
    "nodes": [
        {
            "name": "low_rider_raw_1_",
            "children": [
                1
            ]
        },
        {
            "name": "LOW_RIDER_RAW_CEDAR005",
            "matrix": [
                1.0,
                0.0,
                0.0,
                0.0,
                0.0,
                -1.3435885648505064e-7,
                0.9999999403953552,
                0.0,
                0.0,
                -0.9999999403953552,
                -1.3435885648505064e-7,
                0.0,
                0.0,
                0.0,
                0.0,
                1.0
            ],
            "children": [
                2,
                3,
                4,
                5,
                6,
                7,
                8,
                9
            ],
            "extras": {
                "name": "LOW_RIDER_RAW_CEDAR.005"
            }
        },
        {
            "name": "LOW_RIDER_RAW_CEDAR005_1",
            "mesh": 0
        },
        {
            "name": "LOW_RIDER_RAW_CEDAR005_2",
            "mesh": 1
        },
        {
            "name": "LOW_RIDER_RAW_CEDAR005_3",
            "mesh": 2
        },
        {
            "name": "LOW_RIDER_RAW_CEDAR005_4",
            "mesh": 3
        },
        {
            "name": "LOW_RIDER_RAW_CEDAR005_5",
            "mesh": 4
        },
        {
            "name": "LOW_RIDER_RAW_CEDAR005_6",
            "mesh": 5
        },
        {
            "name": "LOW_RIDER_RAW_CEDAR005_7",
            "mesh": 6
        },
        {
            "name": "LOW_RIDER_RAW_CEDAR005_8",
            "mesh": 7
        }
    ],
    "samplers": [
        {
            "magFilter": 9729,
            "minFilter": 9987
        },
        {
            "magFilter": 9729,
            "minFilter": 9987
        },
        {
            "magFilter": 9729,
            "minFilter": 9987
        },
        {
            "magFilter": 9729,
            "minFilter": 9987
        },
        {
            "magFilter": 9729,
            "minFilter": 9987
        },
        {
            "magFilter": 9729,
            "minFilter": 9987
        },
        {
            "magFilter": 9729,
            "minFilter": 9987
        }
    ],
    "scenes": [
        {
            "nodes": [
                0
            ]
        }
    ],
    "textures": [
        {
            "source": 0,
            "sampler": 0
        },
        {
            "source": 1,
            "sampler": 1
        },
        {
            "source": 2,
            "sampler": 2
        },
        {
            "source": 3,
            "sampler": 3
        },
        {
            "source": 4,
            "sampler": 4
        },
        {
            "source": 5,
            "sampler": 5
        },
        {
            "source": 6,
            "sampler": 6
        }
    ],
    "scene": 0
}