{
	"asset":{
		"generator":"Khronos glTF Blender I/O v4.4.56",
		"version":"2.0"
	},
	"extensionsUsed":[
		"KHR_materials_clearcoat"
	],
	"scene":0,
	"scenes":[
		{
			"name":"Scene",
			"nodes":[
				0
			]
		}
	],
	"nodes":[
		{
			"mesh":0,
			"name":"LOW_RIDER_RAW_CEDAR.005",
			"rotation":[
				0.2716093063354492,
				0.6528615951538086,
				-0.6528617739677429,
				0.27160924673080444
			],
			"scale":[
				0.02500000223517418,
				0.02500000223517418,
				0.02500000037252903
			]
		}
	],
	"materials":[
		{
			"doubleSided":true,
			"name":"METAL.021",
			"pbrMetallicRoughness":{
				"baseColorTexture":{
					"index":0
				},
				"metallicFactor":0.918181836605072,
				"roughnessFactor":0.2863636612892151
			}
		},
		{
			"doubleSided":true,
			"name":"RAW_CEDAR_GRAIN.003",
			"pbrMetallicRoughness":{
				"baseColorTexture":{
					"index":1
				},
				"metallicFactor":0
			}
		},
		{
			"doubleSided":true,
			"name":"Cedar_side.003",
			"pbrMetallicRoughness":{
				"baseColorTexture":{
					"index":2
				},
				"metallicFactor":0
			}
		},
		{
			"doubleSided":true,
			"extensions":{
				"KHR_materials_clearcoat":{
					"clearcoatFactor":0.9545454382896423
				}
			},
			"name":"OFF_WHITE.021",
			"pbrMetallicRoughness":{
				"baseColorTexture":{
					"index":3
				},
				"metallicFactor":0,
				"roughnessFactor":0.1499999761581421
			}
		},
		{
			"doubleSided":true,
			"name":"FrontColor.028",
			"pbrMetallicRoughness":{
				"metallicFactor":0
			}
		},
		{
			"doubleSided":true,
			"extensions":{
				"KHR_materials_clearcoat":{
					"clearcoatFactor":0.949999988079071
				}
			},
			"name":"SUB_SYSTEM.024",
			"pbrMetallicRoughness":{
				"baseColorTexture":{
					"index":4
				},
				"metallicFactor":0,
				"roughnessFactor":0.331818163394928
			}
		},
		{
			"doubleSided":true,
			"name":"RAW_CEDAR_LONG.003",
			"pbrMetallicRoughness":{
				"baseColorTexture":{
					"index":5
				},
				"metallicFactor":0
			}
		},
		{
			"doubleSided":true,
			"name":"BIRD_LOGO.021",
			"pbrMetallicRoughness":{
				"baseColorTexture":{
					"index":6
				},
				"metallicFactor":0
			}
		}
	],
	"meshes":[
		{
			"name":"LOW_RIDER_RAW_CEDAR.005",
			"primitives":[
				{
					"attributes":{
						"POSITION":0,
						"NORMAL":1,
						"TEXCOORD_0":2
					},
					"indices":3,
					"material":0
				},
				{
					"attributes":{
						"POSITION":4,
						"NORMAL":5,
						"TEXCOORD_0":6
					},
					"indices":7,
					"material":1
				},
				{
					"attributes":{
						"POSITION":8,
						"NORMAL":9,
						"TEXCOORD_0":10
					},
					"indices":11,
					"material":2
				},
				{
					"attributes":{
						"POSITION":12,
						"NORMAL":13,
						"TEXCOORD_0":14
					},
					"indices":15,
					"material":3
				},
				{
					"attributes":{
						"POSITION":16,
						"NORMAL":17,
						"TEXCOORD_0":18
					},
					"indices":19,
					"material":4
				},
				{
					"attributes":{
						"POSITION":20,
						"NORMAL":21,
						"TEXCOORD_0":22
					},
					"indices":23,
					"material":5
				},
				{
					"attributes":{
						"POSITION":24,
						"NORMAL":25,
						"TEXCOORD_0":26
					},
					"indices":27,
					"material":6
				},
				{
					"attributes":{
						"POSITION":28,
						"NORMAL":29,
						"TEXCOORD_0":30
					},
					"indices":31,
					"material":7
				}
			]
		}
	],
	"textures":[
		{
			"sampler":0,
			"source":0
		},
		{
			"sampler":0,
			"source":1
		},
		{
			"sampler":0,
			"source":2
		},
		{
			"sampler":0,
			"source":3
		},
		{
			"sampler":0,
			"source":4
		},
		{
			"sampler":0,
			"source":5
		},
		{
			"sampler":0,
			"source":6
		}
	],
	"images":[
		{
			"mimeType":"image/jpeg",
			"name":"METAL",
			"uri":"METAL.jpg"
		},
		{
			"mimeType":"image/jpeg",
			"name":"RAW_CEDAR_GRAIN",
			"uri":"RAW_CEDAR_GRAIN.jpg"
		},
		{
			"mimeType":"image/jpeg",
			"name":"Cedar_side",
			"uri":"Cedar_side.jpg"
		},
		{
			"mimeType":"image/jpeg",
			"name":"OFF_WHITE",
			"uri":"OFF_WHITE.jpg"
		},
		{
			"mimeType":"image/jpeg",
			"name":"SUB_SYSTEM",
			"uri":"SUB_SYSTEM.jpg"
		},
		{
			"mimeType":"image/jpeg",
			"name":"RAW_CEDAR_LONG",
			"uri":"RAW_CEDAR_LONG.jpg"
		},
		{
			"mimeType":"image/jpeg",
			"name":"BIRD_LOGO",
			"uri":"BIRD_LOGO.jpg"
		}
	],
	"accessors":[
		{
			"bufferView":0,
			"componentType":5126,
			"count":21201,
			"max":[
				18.264991760253906,
				18.1444091796875,
				6.898211479187012
			],
			"min":[
				-18.112323760986328,
				-18.232906341552734,
				-10.263497352600098
			],
			"type":"VEC3"
		},
		{
			"bufferView":1,
			"componentType":5126,
			"count":21201,
			"type":"VEC3"
		},
		{
			"bufferView":2,
			"componentType":5126,
			"count":21201,
			"type":"VEC2"
		},
		{
			"bufferView":3,
			"componentType":5123,
			"count":38922,
			"type":"SCALAR"
		},
		{
			"bufferView":4,
			"componentType":5126,
			"count":4628,
			"max":[
				18.416908264160156,
				18.296310424804688,
				4.83241081237793
			],
			"min":[
				-18.264225006103516,
				-18.38482666015625,
				-7.168497085571289
			],
			"type":"VEC3"
		},
		{
			"bufferView":5,
			"componentType":5126,
			"count":4628,
			"type":"VEC3"
		},
		{
			"bufferView":6,
			"componentType":5126,
			"count":4628,
			"type":"VEC2"
		},
		{
			"bufferView":7,
			"componentType":5123,
			"count":7908,
			"type":"SCALAR"
		},
		{
			"bufferView":8,
			"componentType":5126,
			"count":1246,
			"max":[
				18.416908264160156,
				18.296310424804688,
				4.831759452819824
			],
			"min":[
				-18.264225006103516,
				-18.38482666015625,
				-8.418498039245605
			],
			"type":"VEC3"
		},
		{
			"bufferView":9,
			"componentType":5126,
			"count":1246,
			"type":"VEC3"
		},
		{
			"bufferView":10,
			"componentType":5126,
			"count":1246,
			"type":"VEC2"
		},
		{
			"bufferView":11,
			"componentType":5123,
			"count":3660,
			"type":"SCALAR"
		},
		{
			"bufferView":12,
			"componentType":5126,
			"count":2082,
			"max":[
				17.709808349609375,
				17.589210510253906,
				4.831380844116211
			],
			"min":[
				-17.557125091552734,
				-17.677722930908203,
				-8.168498039245605
			],
			"type":"VEC3"
		},
		{
			"bufferView":13,
			"componentType":5126,
			"count":2082,
			"type":"VEC3"
		},
		{
			"bufferView":14,
			"componentType":5126,
			"count":2082,
			"type":"VEC2"
		},
		{
			"bufferView":15,
			"componentType":5123,
			"count":4302,
			"type":"SCALAR"
		},
		{
			"bufferView":16,
			"componentType":5126,
			"count":6221,
			"max":[
				17.04688262939453,
				16.926311492919922,
				6.57851505279541
			],
			"min":[
				-16.894224166870117,
				-17.014801025390625,
				0.8315429091453552
			],
			"type":"VEC3"
		},
		{
			"bufferView":17,
			"componentType":5126,
			"count":6221,
			"type":"VEC3"
		},
		{
			"bufferView":18,
			"componentType":5126,
			"count":6221,
			"type":"VEC2"
		},
		{
			"bufferView":19,
			"componentType":5123,
			"count":9852,
			"type":"SCALAR"
		},
		{
			"bufferView":20,
			"componentType":5126,
			"count":4234,
			"max":[
				17.11357879638672,
				16.892669677734375,
				7.313385963439941
			],
			"min":[
				-16.500024795532227,
				-16.618350982666016,
				-0.0031071901321411133
			],
			"type":"VEC3"
		},
		{
			"bufferView":21,
			"componentType":5126,
			"count":4234,
			"type":"VEC3"
		},
		{
			"bufferView":22,
			"componentType":5126,
			"count":4234,
			"type":"VEC2"
		},
		{
			"bufferView":23,
			"componentType":5123,
			"count":8808,
			"type":"SCALAR"
		},
		{
			"bufferView":24,
			"componentType":5126,
			"count":1263,
			"max":[
				18.461101531982422,
				18.34050750732422,
				-6.167697906494141
			],
			"min":[
				-18.30842399597168,
				-18.429019927978516,
				-7.543497085571289
			],
			"type":"VEC3"
		},
		{
			"bufferView":25,
			"componentType":5126,
			"count":1263,
			"type":"VEC3"
		},
		{
			"bufferView":26,
			"componentType":5126,
			"count":1263,
			"type":"VEC2"
		},
		{
			"bufferView":27,
			"componentType":5123,
			"count":1968,
			"type":"SCALAR"
		},
		{
			"bufferView":28,
			"componentType":5126,
			"count":29694,
			"max":[
				-2.4384231567382812,
				16.39071273803711,
				3.126927614212036
			],
			"min":[
				-6.422024250030518,
				12.407109260559082,
				0.4179428815841675
			],
			"type":"VEC3"
		},
		{
			"bufferView":29,
			"componentType":5126,
			"count":29694,
			"type":"VEC3"
		},
		{
			"bufferView":30,
			"componentType":5126,
			"count":29694,
			"type":"VEC2"
		},
		{
			"bufferView":31,
			"componentType":5123,
			"count":58932,
			"type":"SCALAR"
		}
	],
	"bufferViews":[
		{
			"buffer":0,
			"byteLength":254412,
			"byteOffset":0,
			"target":34962
		},
		{
			"buffer":0,
			"byteLength":254412,
			"byteOffset":254412,
			"target":34962
		},
		{
			"buffer":0,
			"byteLength":169608,
			"byteOffset":508824,
			"target":34962
		},
		{
			"buffer":0,
			"byteLength":77844,
			"byteOffset":678432,
			"target":34963
		},
		{
			"buffer":0,
			"byteLength":55536,
			"byteOffset":756276,
			"target":34962
		},
		{
			"buffer":0,
			"byteLength":55536,
			"byteOffset":811812,
			"target":34962
		},
		{
			"buffer":0,
			"byteLength":37024,
			"byteOffset":867348,
			"target":34962
		},
		{
			"buffer":0,
			"byteLength":15816,
			"byteOffset":904372,
			"target":34963
		},
		{
			"buffer":0,
			"byteLength":14952,
			"byteOffset":920188,
			"target":34962
		},
		{
			"buffer":0,
			"byteLength":14952,
			"byteOffset":935140,
			"target":34962
		},
		{
			"buffer":0,
			"byteLength":9968,
			"byteOffset":950092,
			"target":34962
		},
		{
			"buffer":0,
			"byteLength":7320,
			"byteOffset":960060,
			"target":34963
		},
		{
			"buffer":0,
			"byteLength":24984,
			"byteOffset":967380,
			"target":34962
		},
		{
			"buffer":0,
			"byteLength":24984,
			"byteOffset":992364,
			"target":34962
		},
		{
			"buffer":0,
			"byteLength":16656,
			"byteOffset":1017348,
			"target":34962
		},
		{
			"buffer":0,
			"byteLength":8604,
			"byteOffset":1034004,
			"target":34963
		},
		{
			"buffer":0,
			"byteLength":74652,
			"byteOffset":1042608,
			"target":34962
		},
		{
			"buffer":0,
			"byteLength":74652,
			"byteOffset":1117260,
			"target":34962
		},
		{
			"buffer":0,
			"byteLength":49768,
			"byteOffset":1191912,
			"target":34962
		},
		{
			"buffer":0,
			"byteLength":19704,
			"byteOffset":1241680,
			"target":34963
		},
		{
			"buffer":0,
			"byteLength":50808,
			"byteOffset":1261384,
			"target":34962
		},
		{
			"buffer":0,
			"byteLength":50808,
			"byteOffset":1312192,
			"target":34962
		},
		{
			"buffer":0,
			"byteLength":33872,
			"byteOffset":1363000,
			"target":34962
		},
		{
			"buffer":0,
			"byteLength":17616,
			"byteOffset":1396872,
			"target":34963
		},
		{
			"buffer":0,
			"byteLength":15156,
			"byteOffset":1414488,
			"target":34962
		},
		{
			"buffer":0,
			"byteLength":15156,
			"byteOffset":1429644,
			"target":34962
		},
		{
			"buffer":0,
			"byteLength":10104,
			"byteOffset":1444800,
			"target":34962
		},
		{
			"buffer":0,
			"byteLength":3936,
			"byteOffset":1454904,
			"target":34963
		},
		{
			"buffer":0,
			"byteLength":356328,
			"byteOffset":1458840,
			"target":34962
		},
		{
			"buffer":0,
			"byteLength":356328,
			"byteOffset":1815168,
			"target":34962
		},
		{
			"buffer":0,
			"byteLength":237552,
			"byteOffset":2171496,
			"target":34962
		},
		{
			"buffer":0,
			"byteLength":117864,
			"byteOffset":2409048,
			"target":34963
		}
	],
	"samplers":[
		{
			"magFilter":9729,
			"minFilter":9987
		}
	],
	"buffers":[
		{
			"byteLength":2526912,
			"uri":"low_rider.bin"
		}
	]
}
